{
  "source": "C:\\Users\\Peter\\Desktop\\stuff\\MIUN\\quantitative_research\\video_compression\\videos\\BVI-HD\\BVI-HD_CDVL_videos\\ORIG\\FishAndRock_1920x1080_30fps.mp4",
  "output": "C:\\Users\\Peter\\Desktop\\stuff\\MIUN\\quantitative_research\\video_compression\\compressed_videos\\BVI-HD\\h264\\3\\FishAndRock_1920x1080_30fps_h264.mp4",
  "codec": "h264",
  "ok": "Input #0, mov,mp4,m4a,3gp,3g2,mj2, from 'C:\\Users\\Peter\\Desktop\\stuff\\MIUN\\quantitative_research\\video_compression\\videos\\BVI-HD\\BVI-HD_CDVL_videos\\ORIG\\FishAndRock_1920x1080_30fps.mp4':\n  Metadata:\n    major_brand     : isom\n    minor_version   : 512\n    compatible_brands: isomiso2avc1mp41\n    encoder         : Lavf54.28.101\n  Duration: 00:00:05.00, start: 0.000000, bitrate: 251564 kb/s\n  Stream #0:0[0x1](und): Video: h264 (High 4:4:4 Predictive) (avc1 / 0x31637661), yuv420p(progressive), 1920x1080, 251561 kb/s, 30 fps, 30 tbr, 30 tbn (default)\n    Metadata:\n      handler_name    : VideoHandler\n      vendor_id       : [0][0][0][0]\n[out#0/mp4 @ 00000174abe09a40] Codec AVOption b:a (set bitrate (in bits/s)) has not been used for any stream. The most likely reason is either wrong type (e.g. a video option with no video streams) or that it is a private option of some decoder which was not actually used for any stream.\nStream mapping:\n  Stream #0:0 -> #0:0 (h264 (native) -> h264 (libx264))\nPress [q] to stop, [?] for help\n[libx264 @ 00000174acbd75c0] using cpu capabilities: MMX2 SSE2Fast SSSE3 SSE4.2 AVX FMA3 BMI2 AVX2\n[libx264 @ 00000174acbd75c0] profile High, level 5.0, 4:2:0, 8-bit\n[libx264 @ 00000174acbd75c0] 264 - core 165 r3222 b35605a - H.264/MPEG-4 AVC codec - Copyleft 2003-2025 - http://www.videolan.org/x264.html - options: cabac=1 ref=5 deblock=1:0:0 analyse=0x3:0x113 me=hex subme=8 psy=1 psy_rd=1.00:0.00 mixed_ref=1 me_range=16 chroma_me=1 trellis=2 8x8dct=1 cqm=0 deadzone=21,11 fast_pskip=1 chroma_qp_offset=-2 threads=18 lookahead_threads=3 sliced_threads=0 nr=0 decimate=1 interlaced=0 bluray_compat=0 constrained_intra=0 bframes=3 b_pyramid=2 b_adapt=1 b_bias=0 direct=3 weightb=1 open_gop=0 weightp=2 keyint=250 keyint_min=25 scenecut=40 intra_refresh=0 rc_lookahead=50 rc=cbr mbtree=1 bitrate=3000 ratetol=1.0 qcomp=0.60 qpmin=0 qpmax=69 qpstep=4 vbv_maxrate=3000 vbv_bufsize=3000 nal_hrd=none filler=0 ip_ratio=1.40 aq=1:1.00\nOutput #0, mp4, to 'C:\\Users\\Peter\\Desktop\\stuff\\MIUN\\quantitative_research\\video_compression\\compressed_videos\\BVI-HD\\h264\\3\\FishAndRock_1920x1080_30fps_h264.mp4':\n  Metadata:\n    major_brand     : isom\n    minor_version   : 512\n    compatible_brands: isomiso2avc1mp41\n    encoder         : Lavf62.3.100\n  Stream #0:0(und): Video: h264 (avc1 / 0x31637661), yuv420p(tv, progressive), 1920x1080, q=2-31, 3000 kb/s, 30 fps, 15360 tbn (default)\n    Metadata:\n      encoder         : Lavc62.11.100 libx264\n      handler_name    : VideoHandler\n      vendor_id       : [0][0][0][0]\n    Side data:\n      cpb: bitrate max/min/avg: 3000000/0/3000000 buffer size: 3000000 vbv_delay: N/A\nframe=    0 fps=0.0 q=0.0 size=       0KiB time=N/A bitrate=N/A speed=N/A elapsed=0:00:00.51    \nframe=    0 fps=0.0 q=0.0 size=       0KiB time=N/A bitrate=N/A speed=N/A elapsed=0:00:01.03    \nframe=    8 fps=5.1 q=34.0 size=       0KiB time=00:00:00.20 bitrate=   1.9kbits/s speed=0.129x elapsed=0:00:01.55    \nframe=   36 fps= 17 q=34.0 size=     256KiB time=00:00:01.06 bitrate=1966.4kbits/s speed=0.507x elapsed=0:00:02.10    \nframe=   59 fps= 22 q=34.0 size=     512KiB time=00:00:01.90 bitrate=2207.7kbits/s speed=0.719x elapsed=0:00:02.64    \nframe=   86 fps= 27 q=34.0 size=     768KiB time=00:00:02.80 bitrate=2247.1kbits/s speed=0.88x elapsed=0:00:03.18    \nframe=  118 fps= 32 q=34.0 size=    1024KiB time=00:00:03.86 bitrate=2169.6kbits/s speed=1.04x elapsed=0:00:03.73    \n[mp4 @ 00000174abe114c0] Starting second pass: moving the moov atom to the beginning of the file\n[out#0/mp4 @ 00000174abe09a40] video:1543KiB audio:0KiB subtitle:0KiB other streams:0KiB global headers:0KiB muxing overhead: 0.167260%\nframe=  150 fps= 36 q=-1.0 Lsize=    1546KiB time=00:00:04.93 bitrate=2566.7kbits/s speed=1.18x elapsed=0:00:04.19    \n[libx264 @ 00000174acbd75c0] frame I:1     Avg QP:31.22  size: 70536\n[libx264 @ 00000174acbd75c0] frame P:39    Avg QP:30.42  size: 25598\n[libx264 @ 00000174acbd75c0] frame B:110   Avg QP:34.60  size:  4642\n[libx264 @ 00000174acbd75c0] consecutive B-frames:  1.3%  0.0%  8.0% 90.7%\n[libx264 @ 00000174acbd75c0] mb I  I16..4: 21.5% 72.1%  6.4%\n[libx264 @ 00000174acbd75c0] mb P  I16..4:  0.6%  2.4%  0.1%  P16..4: 53.7% 11.1%  4.4%  0.0%  0.0%    skip:27.7%\n[libx264 @ 00000174acbd75c0] mb B  I16..4:  0.0%  0.1%  0.0%  B16..8: 41.2%  1.2%  0.1%  direct: 0.3%  skip:57.0%  L0:36.8% L1:62.1% BI: 1.1%\n[libx264 @ 00000174acbd75c0] 8x8 transform intra:76.1% inter:82.2%\n[libx264 @ 00000174acbd75c0] direct mvs  spatial:90.9% temporal:9.1%\n[libx264 @ 00000174acbd75c0] coded y,uvDC,uvAC intra: 60.5% 39.5% 3.9% inter: 6.9% 5.7% 0.0%\n[libx264 @ 00000174acbd75c0] i16 v,h,dc,p: 22% 32% 17% 29%\n[libx264 @ 00000174acbd75c0] i8 v,h,dc,ddl,ddr,vr,hd,vl,hu: 14%  4%  8%  8% 16% 13% 17%  9% 12%\n[libx264 @ 00000174acbd75c0] i4 v,h,dc,ddl,ddr,vr,hd,vl,hu:  6%  4%  2%  9% 16% 14% 21% 10% 19%\n[libx264 @ 00000174acbd75c0] i8c dc,h,v,p: 46% 32% 13%  8%\n[libx264 @ 00000174acbd75c0] Weighted P-Frames: Y:35.9% UV:15.4%\n[libx264 @ 00000174acbd75c0] ref P L0: 64.6% 21.5%  9.4%  2.3%  1.8%  0.4%  0.0%\n[libx264 @ 00000174acbd75c0] ref B L0: 96.0%  3.0%  0.7%  0.2%\n[libx264 @ 00000174acbd75c0] ref B L1: 98.8%  1.2%\n[libx264 @ 00000174acbd75c0] kb/s:2527.07\n",
  "seconds": 4.492431402206421,
  "probe_out": {}
}